<?xml version="1.0" encoding="UTF-8"?>
<svg width="1200pt" height="1200pt" version="1.1" viewBox="0 0 1200 1200" xmlns="http://www.w3.org/2000/svg">
 <path d="m600 278.99c-32.797 36.238-126.37 151.33-126.37 285.06 0 133.7 93.562 248.82 126.37 285.06 32.797-36.254 126.37-151.36 126.37-285.06 0-133.73-93.574-248.82-126.37-285.06zm-127.81 140.21c-48.781-45.121-100.18-74.004-124.7-86.473-17.676 45.574-63.938 186.52-16.129 311.41 47.879 125.15 176.34 199.02 219.93 221.09 1.7266-4.5 3.7812-10.141 5.9531-16.355-43.32-52.645-115.71-159.31-115.71-284.81-0.015625-52.426 12.766-101.52 30.668-144.86zm-158.99 263.54c-27.996-8.1602-58.512-12.371-91.078-12.371-70.906 0-134.14 19.703-162.12 29.855 20.039 40.898 84.254 155.34 194.24 199.78 34.559 13.906 73.68 21.012 116.3 21.012h0.011719c70.246 0 132.86-19.285 161.23-29.555-47.77-24.59-162.07-92.988-218.59-208.72zm664.7-12.383c-32.594 0-63.086 4.2227-91.105 12.371-56.52 115.74-170.81 184.14-218.59 208.73 28.367 10.262 91.008 29.555 161.24 29.555 42.637 0 81.758-7.1055 116.3-21.012 110-44.434 174.21-158.88 194.25-199.77-27.973-10.164-91.211-29.867-162.1-29.867zm-109.26-26.219c47.809-124.88 1.5859-265.82-16.105-311.41-24.527 12.469-75.949 41.352-124.73 86.473 17.902 43.344 30.695 92.438 30.695 144.85 0 125.5-72.383 232.16-115.74 284.81 2.1719 6.2266 4.2109 11.855 5.9648 16.32 43.605-22.109 172.14-96.184 219.91-221.04z" fill="#fff"/>
</svg>
